[FRAME]
media_type=audio
stream_index=1
key_frame=1
pkt_pts=8789760
pkt_pts_time=97.664000
pkt_dts=8789760
pkt_dts_time=97.664000
best_effort_timestamp=8789760
best_effort_timestamp_time=97.664000
pkt_duration=5760
pkt_duration_time=0.064000
pkt_pos=37600
pkt_size=556
sample_fmt=fltp
nb_samples=1024
channels=1
channel_layout=mono
[/FRAME]
[FRAME]
media_type=audio
stream_index=1
key_frame=1
pkt_pts=8795520
pkt_pts_time=97.728000
pkt_dts=8795520
pkt_dts_time=97.728000
best_effort_timestamp=8795520
best_effort_timestamp_time=97.728000
pkt_duration=5760
pkt_duration_time=0.064000
pkt_pos=40420
pkt_size=642
sample_fmt=fltp
nb_samples=1024
channels=1
channel_layout=mono
[/FRAME]
[FRAME]
media_type=video
stream_index=0
key_frame=1
pkt_pts=8784000
pkt_pts_time=97.600000
pkt_dts=8791200
pkt_dts_time=97.680000
best_effort_timestamp=8784000
best_effort_timestamp_time=97.600000
pkt_duration=3600
pkt_duration_time=0.040000
pkt_pos=564
pkt_size=25767
width=480
height=288
pix_fmt=yuv420p
sample_aspect_ratio=16:15
pict_type=I
coded_picture_number=0
display_picture_number=0
interlaced_frame=0
top_field_first=0
repeat_pict=0
color_range=unknown
color_space=unknown
color_primaries=unknown
color_transfer=unknown
chroma_location=left
[/FRAME]
[FRAME]
media_type=audio
stream_index=1
key_frame=1
pkt_pts=8801280
pkt_pts_time=97.792000
pkt_dts=8801280
pkt_dts_time=97.792000
best_effort_timestamp=8801280
best_effort_timestamp_time=97.792000
pkt_duration=5760
pkt_duration_time=0.064000
pkt_pos=41736
pkt_size=610
sample_fmt=fltp
nb_samples=1024
channels=1
channel_layout=mono
[/FRAME]
[FRAME]
media_type=video
stream_index=0
key_frame=0
pkt_pts=8794800
pkt_pts_time=97.720000
pkt_dts=8794800
pkt_dts_time=97.720000
best_effort_timestamp=8794800
best_effort_timestamp_time=97.720000
pkt_duration=3600
pkt_duration_time=0.040000
pkt_pos=39480
pkt_size=332
width=480
height=288
pix_fmt=yuv420p
sample_aspect_ratio=16:15
pict_type=B
coded_picture_number=3
display_picture_number=0
interlaced_frame=0
top_field_first=0
repeat_pict=0
color_range=unknown
color_space=unknown
color_primaries=unknown
color_transfer=unknown
chroma_location=left
[/FRAME]
[FRAME]
media_type=video
stream_index=0
key_frame=0
pkt_pts=8791200
pkt_pts_time=97.680000
pkt_dts=8798400
pkt_dts_time=97.760000
best_effort_timestamp=8798400
best_effort_timestamp_time=97.760000
pkt_duration=3600
pkt_duration_time=0.040000
pkt_pos=38352
pkt_size=1052
width=480
height=288
pix_fmt=yuv420p
sample_aspect_ratio=16:15
pict_type=B
coded_picture_number=2
display_picture_number=0
interlaced_frame=0
top_field_first=0
repeat_pict=0
color_range=unknown
color_space=unknown
color_primaries=unknown
color_transfer=unknown
chroma_location=left
[/FRAME]
[FRAME]
media_type=audio
stream_index=1
key_frame=1
pkt_pts=8807040
pkt_pts_time=97.856000
pkt_dts=8807040
pkt_dts_time=97.856000
best_effort_timestamp=8807040
best_effort_timestamp_time=97.856000
pkt_duration=5760
pkt_duration_time=0.064000
pkt_pos=45872
pkt_size=496
sample_fmt=fltp
nb_samples=1024
channels=1
channel_layout=mono
[/FRAME]
[FRAME]
media_type=video
stream_index=0
key_frame=0
pkt_pts=8798400
pkt_pts_time=97.760000
pkt_dts=8802000
pkt_dts_time=97.800000
best_effort_timestamp=8802000
best_effort_timestamp_time=97.800000
pkt_duration=3600
pkt_duration_time=0.040000
pkt_pos=41172
pkt_size=452
width=480
height=288
pix_fmt=yuv420p
sample_aspect_ratio=16:15
pict_type=B
coded_picture_number=4
display_picture_number=0
interlaced_frame=0
top_field_first=0
repeat_pict=0
color_range=unknown
color_space=unknown
color_primaries=unknown
color_transfer=unknown
chroma_location=left
[/FRAME]
[FRAME]
media_type=video
stream_index=0
key_frame=0
pkt_pts=8787600
pkt_pts_time=97.640000
pkt_dts=8805600
pkt_dts_time=97.840000
best_effort_timestamp=8805600
best_effort_timestamp_time=97.840000
pkt_duration=3600
pkt_duration_time=0.040000
pkt_pos=28200
pkt_size=8711
width=480
height=288
pix_fmt=yuv420p
sample_aspect_ratio=16:15
pict_type=P
coded_picture_number=1
display_picture_number=0
interlaced_frame=0
top_field_first=0
repeat_pict=0
color_range=unknown
color_space=unknown
color_primaries=unknown
color_transfer=unknown
chroma_location=left
[/FRAME]
[FRAME]
media_type=audio
stream_index=1
key_frame=1
pkt_pts=8812800
pkt_pts_time=97.920000
pkt_dts=8812800
pkt_dts_time=97.920000
best_effort_timestamp=8812800
best_effort_timestamp_time=97.920000
pkt_duration=5760
pkt_duration_time=0.064000
pkt_pos=47000
pkt_size=510
sample_fmt=fltp
nb_samples=1024
channels=1
channel_layout=mono
[/FRAME]
[FRAME]
media_type=video
stream_index=0
key_frame=0
pkt_pts=8809200
pkt_pts_time=97.880000
pkt_dts=8809200
pkt_dts_time=97.880000
best_effort_timestamp=8809200
best_effort_timestamp_time=97.880000
pkt_duration=3600
pkt_duration_time=0.040000
pkt_pos=46436
pkt_size=206
width=480
height=288
pix_fmt=yuv420p
sample_aspect_ratio=16:15
pict_type=B
coded_picture_number=7
display_picture_number=0
interlaced_frame=0
top_field_first=0
repeat_pict=0
color_range=unknown
color_space=unknown
color_primaries=unknown
color_transfer=unknown
chroma_location=left
[/FRAME]
[FRAME]
media_type=audio
stream_index=1
key_frame=1
pkt_pts=8818560
pkt_pts_time=97.984000
pkt_dts=8818560
pkt_dts_time=97.984000
best_effort_timestamp=8818560
best_effort_timestamp_time=97.984000
pkt_duration=5760
pkt_duration_time=0.064000
pkt_pos=52828
pkt_size=542
sample_fmt=fltp
nb_samples=1024
channels=1
channel_layout=mono
[/FRAME]
[FRAME]
media_type=video
stream_index=0
key_frame=0
pkt_pts=8805600
pkt_pts_time=97.840000
pkt_dts=8812800
pkt_dts_time=97.920000
best_effort_timestamp=8812800
best_effort_timestamp_time=97.920000
pkt_duration=3600
pkt_duration_time=0.040000
pkt_pos=45308
pkt_size=413
width=480
height=288
pix_fmt=yuv420p
sample_aspect_ratio=16:15
pict_type=B
coded_picture_number=6
display_picture_number=0
interlaced_frame=0
top_field_first=0
repeat_pict=0
color_range=unknown
color_space=unknown
color_primaries=unknown
color_transfer=unknown
chroma_location=left
[/FRAME]
[FRAME]
media_type=video
stream_index=0
key_frame=0
pkt_pts=8812800
pkt_pts_time=97.920000
pkt_dts=8816400
pkt_dts_time=97.960000
best_effort_timestamp=8816400
best_effort_timestamp_time=97.960000
pkt_duration=3600
pkt_duration_time=0.040000
pkt_pos=46812
pkt_size=150
width=480
height=288
pix_fmt=yuv420p
sample_aspect_ratio=16:15
pict_type=B
coded_picture_number=8
display_picture_number=0
interlaced_frame=0
top_field_first=0
repeat_pict=0
color_range=unknown
color_space=unknown
color_primaries=unknown
color_transfer=unknown
chroma_location=left
[/FRAME]
[FRAME]
media_type=audio
stream_index=1
key_frame=1
pkt_pts=8824320
pkt_pts_time=98.048000
pkt_dts=8824320
pkt_dts_time=98.048000
best_effort_timestamp=8824320
best_effort_timestamp_time=98.048000
pkt_duration=5760
pkt_duration_time=0.064000
pkt_pos=54144
pkt_size=524
sample_fmt=fltp
nb_samples=1024
channels=1
channel_layout=mono
[/FRAME]
[FRAME]
media_type=video
stream_index=0
key_frame=0
pkt_pts=8802000
pkt_pts_time=97.800000
pkt_dts=8820000
pkt_dts_time=98.000000
best_effort_timestamp=8820000
best_effort_timestamp_time=98.000000
pkt_duration=3600
pkt_duration_time=0.040000
pkt_pos=42488
pkt_size=2642
width=480
height=288
pix_fmt=yuv420p
sample_aspect_ratio=16:15
pict_type=P
coded_picture_number=5
display_picture_number=0
interlaced_frame=0
top_field_first=0
repeat_pict=0
color_range=unknown
color_space=unknown
color_primaries=unknown
color_transfer=unknown
chroma_location=left
[/FRAME]
[FRAME]
media_type=audio
stream_index=1
key_frame=1
pkt_pts=8830080
pkt_pts_time=98.112000
pkt_dts=8830080
pkt_dts_time=98.112000
best_effort_timestamp=8830080
best_effort_timestamp_time=98.112000
pkt_duration=5760
pkt_duration_time=0.064000
pkt_pos=56776
pkt_size=639
sample_fmt=fltp
nb_samples=1024
channels=1
channel_layout=mono
[/FRAME]
[FRAME]
media_type=video
stream_index=0
key_frame=0
pkt_pts=8820000
pkt_pts_time=98.000000
pkt_dts=8823600
pkt_dts_time=98.040000
best_effort_timestamp=8823600
best_effort_timestamp_time=98.040000
pkt_duration=3600
pkt_duration_time=0.040000
pkt_pos=53580
pkt_size=300
width=480
height=288
pix_fmt=yuv420p
sample_aspect_ratio=16:15
pict_type=B
coded_picture_number=10
display_picture_number=0
interlaced_frame=0
top_field_first=0
repeat_pict=0
color_range=unknown
color_space=unknown
color_primaries=unknown
color_transfer=unknown
chroma_location=left
[/FRAME]
[FRAME]
media_type=video
stream_index=0
key_frame=0
pkt_pts=8823600
pkt_pts_time=98.040000
pkt_dts=8827200
pkt_dts_time=98.080000
best_effort_timestamp=8827200
best_effort_timestamp_time=98.080000
pkt_duration=3600
pkt_duration_time=0.040000
pkt_pos=53956
pkt_size=170
width=480
height=288
pix_fmt=yuv420p
sample_aspect_ratio=16:15
pict_type=B
coded_picture_number=11
display_picture_number=0
interlaced_frame=0
top_field_first=0
repeat_pict=0
color_range=unknown
color_space=unknown
color_primaries=unknown
color_transfer=unknown
chroma_location=left
[/FRAME]
[FRAME]
media_type=audio
stream_index=1
key_frame=1
pkt_pts=8835840
pkt_pts_time=98.176000
pkt_dts=8835840
pkt_dts_time=98.176000
best_effort_timestamp=8835840
best_effort_timestamp_time=98.176000
pkt_duration=5760
pkt_duration_time=0.064000
pkt_pos=59596
pkt_size=757
sample_fmt=fltp
nb_samples=1024
channels=1
channel_layout=mono
[/FRAME]
[FRAME]
media_type=video
stream_index=0
key_frame=0
pkt_pts=8816400
pkt_pts_time=97.960000
pkt_dts=8830800
pkt_dts_time=98.120000
best_effort_timestamp=8830800
best_effort_timestamp_time=98.120000
pkt_duration=3600
pkt_duration_time=0.040000
pkt_pos=47564
pkt_size=4639
width=480
height=288
pix_fmt=yuv420p
sample_aspect_ratio=16:15
pict_type=P
coded_picture_number=9
display_picture_number=0
interlaced_frame=0
top_field_first=0
repeat_pict=0
color_range=unknown
color_space=unknown
color_primaries=unknown
color_transfer=unknown
chroma_location=left
[/FRAME]
[FRAME]
media_type=video
stream_index=0
key_frame=0
pkt_pts=8830800
pkt_pts_time=98.120000
pkt_dts=8834400
pkt_dts_time=98.160000
best_effort_timestamp=8834400
best_effort_timestamp_time=98.160000
pkt_duration=3600
pkt_duration_time=0.040000
pkt_pos=57528
pkt_size=198
width=480
height=288
pix_fmt=yuv420p
sample_aspect_ratio=16:15
pict_type=B
coded_picture_number=13
display_picture_number=0
interlaced_frame=0
top_field_first=0
repeat_pict=0
color_range=unknown
color_space=unknown
color_primaries=unknown
color_transfer=unknown
chroma_location=left
[/FRAME]
[FRAME]
media_type=audio
stream_index=1
key_frame=1
pkt_pts=8841600
pkt_pts_time=98.240000
pkt_dts=8841600
pkt_dts_time=98.240000
best_effort_timestamp=8841600
best_effort_timestamp_time=98.240000
pkt_duration=5760
pkt_duration_time=0.064000
pkt_pos=65048
pkt_size=716
sample_fmt=fltp
nb_samples=1024
channels=1
channel_layout=mono
[/FRAME]
[FRAME]
media_type=video
stream_index=0
key_frame=0
pkt_pts=8827200
pkt_pts_time=98.080000
pkt_dts=8838000
pkt_dts_time=98.200000
best_effort_timestamp=8838000
best_effort_timestamp_time=98.200000
pkt_duration=3600
pkt_duration_time=0.040000
pkt_pos=54708
pkt_size=1498
width=480
height=288
pix_fmt=yuv420p
sample_aspect_ratio=16:15
pict_type=P
coded_picture_number=12
display_picture_number=0
interlaced_frame=0
top_field_first=0
repeat_pict=0
color_range=unknown
color_space=unknown
color_primaries=unknown
color_transfer=unknown
chroma_location=left
[/FRAME]
[FRAME]
media_type=audio
stream_index=1
key_frame=1
pkt_pts=8847360
pkt_pts_time=98.304000
pkt_dts=8847360
pkt_dts_time=98.304000
best_effort_timestamp=8847360
best_effort_timestamp_time=98.304000
pkt_duration=5760
pkt_duration_time=0.064000
pkt_pos=66176
pkt_size=723
sample_fmt=fltp
nb_samples=1024
channels=1
channel_layout=mono
[/FRAME]
[FRAME]
media_type=video
stream_index=0
key_frame=0
pkt_pts=8834400
pkt_pts_time=98.160000
pkt_dts=8841600
pkt_dts_time=98.240000
best_effort_timestamp=8841600
best_effort_timestamp_time=98.240000
pkt_duration=3600
pkt_duration_time=0.040000
pkt_pos=57904
pkt_size=1557
width=480
height=288
pix_fmt=yuv420p
sample_aspect_ratio=16:15
pict_type=P
coded_picture_number=14
display_picture_number=0
interlaced_frame=0
top_field_first=0
repeat_pict=0
color_range=unknown
color_space=unknown
color_primaries=unknown
color_transfer=unknown
chroma_location=left
[/FRAME]
[FRAME]
media_type=video
stream_index=0
key_frame=0
pkt_pts=8838000
pkt_pts_time=98.200000
pkt_dts=8845200
pkt_dts_time=98.280000
best_effort_timestamp=8845200
best_effort_timestamp_time=98.280000
pkt_duration=3600
pkt_duration_time=0.040000
pkt_pos=60536
pkt_size=1737
width=480
height=288
pix_fmt=yuv420p
sample_aspect_ratio=16:15
pict_type=P
coded_picture_number=15
display_picture_number=0
interlaced_frame=0
top_field_first=0
repeat_pict=0
color_range=unknown
color_space=unknown
color_primaries=unknown
color_transfer=unknown
chroma_location=left
[/FRAME]
[FRAME]
media_type=audio
stream_index=1
key_frame=1
pkt_pts=8853120
pkt_pts_time=98.368000
pkt_dts=8853120
pkt_dts_time=98.368000
best_effort_timestamp=8853120
best_effort_timestamp_time=98.368000
pkt_duration=5760
pkt_duration_time=0.064000
pkt_pos=69184
pkt_size=726
sample_fmt=fltp
nb_samples=1024
channels=1
channel_layout=mono
[/FRAME]
[FRAME]
media_type=video
stream_index=0
key_frame=0
pkt_pts=8845200
pkt_pts_time=98.280000
pkt_dts=8848800
pkt_dts_time=98.320000
best_effort_timestamp=8848800
best_effort_timestamp_time=98.320000
pkt_duration=3600
pkt_duration_time=0.040000
pkt_pos=65800
pkt_size=237
width=480
height=288
pix_fmt=yuv420p
sample_aspect_ratio=16:15
pict_type=B
coded_picture_number=17
display_picture_number=0
interlaced_frame=0
top_field_first=0
repeat_pict=0
color_range=unknown
color_space=unknown
color_primaries=unknown
color_transfer=unknown
chroma_location=left
[/FRAME]
[FRAME]
media_type=audio
stream_index=1
key_frame=1
pkt_pts=8858880
pkt_pts_time=98.432000
pkt_dts=8858880
pkt_dts_time=98.432000
best_effort_timestamp=8858880
best_effort_timestamp_time=98.432000
pkt_duration=5760
pkt_duration_time=0.064000
pkt_pos=73320
pkt_size=668
sample_fmt=fltp
nb_samples=1024
channels=1
channel_layout=mono
[/FRAME]
[FRAME]
media_type=video
stream_index=0
key_frame=0
pkt_pts=8841600
pkt_pts_time=98.240000
pkt_dts=8852400
pkt_dts_time=98.360000
best_effort_timestamp=8852400
best_effort_timestamp_time=98.360000
pkt_duration=3600
pkt_duration_time=0.040000
pkt_pos=62416
pkt_size=2166
width=480
height=288
pix_fmt=yuv420p
sample_aspect_ratio=16:15
pict_type=P
coded_picture_number=16
display_picture_number=0
interlaced_frame=0
top_field_first=0
repeat_pict=0
color_range=unknown
color_space=unknown
color_primaries=unknown
color_transfer=unknown
chroma_location=left
[/FRAME]
[FRAME]
media_type=video
stream_index=0
key_frame=0
pkt_pts=8852400
pkt_pts_time=98.360000
pkt_dts=8856000
pkt_dts_time=98.400000
best_effort_timestamp=8856000
best_effort_timestamp_time=98.400000
pkt_duration=3600
pkt_duration_time=0.040000
pkt_pos=68996
pkt_size=127
width=480
height=288
pix_fmt=yuv420p
sample_aspect_ratio=16:15
pict_type=B
coded_picture_number=19
display_picture_number=0
interlaced_frame=0
top_field_first=0
repeat_pict=0
color_range=unknown
color_space=unknown
color_primaries=unknown
color_transfer=unknown
chroma_location=left
[/FRAME]
[FRAME]
media_type=audio
stream_index=1
key_frame=1
pkt_pts=8864640
pkt_pts_time=98.496000
pkt_dts=8864640
pkt_dts_time=98.496000
best_effort_timestamp=8864640
best_effort_timestamp_time=98.496000
pkt_duration=5760
pkt_duration_time=0.064000
pkt_pos=75012
pkt_size=696
sample_fmt=fltp
nb_samples=1024
channels=1
channel_layout=mono
[/FRAME]
[FRAME]
media_type=video
stream_index=0
key_frame=0
pkt_pts=8848800
pkt_pts_time=98.320000
pkt_dts=8859600
pkt_dts_time=98.440000
best_effort_timestamp=8859600
best_effort_timestamp_time=98.440000
pkt_duration=3600
pkt_duration_time=0.040000
pkt_pos=67116
pkt_size=1646
width=480
height=288
pix_fmt=yuv420p
sample_aspect_ratio=16:15
pict_type=P
coded_picture_number=18
display_picture_number=0
interlaced_frame=0
top_field_first=0
repeat_pict=0
color_range=unknown
color_space=unknown
color_primaries=unknown
color_transfer=unknown
chroma_location=left
[/FRAME]
[FRAME]
media_type=video
stream_index=0
key_frame=0
pkt_pts=8863200
pkt_pts_time=98.480000
pkt_dts=8863200
pkt_dts_time=98.480000
best_effort_timestamp=8863200
best_effort_timestamp_time=98.480000
pkt_duration=3600
pkt_duration_time=0.040000
pkt_pos=74636
pkt_size=220
width=480
height=288
pix_fmt=yuv420p
sample_aspect_ratio=16:15
pict_type=B
coded_picture_number=22
display_picture_number=0
interlaced_frame=0
top_field_first=0
repeat_pict=0
color_range=unknown
color_space=unknown
color_primaries=unknown
color_transfer=unknown
chroma_location=left
[/FRAME]
[FRAME]
media_type=audio
stream_index=1
key_frame=1
pkt_pts=8870400
pkt_pts_time=98.560000
pkt_dts=8870400
pkt_dts_time=98.560000
best_effort_timestamp=8870400
best_effort_timestamp_time=98.560000
pkt_duration=5760
pkt_duration_time=0.064000
pkt_pos=78396
pkt_size=665
sample_fmt=fltp
nb_samples=1024
channels=1
channel_layout=mono
[/FRAME]
[FRAME]
media_type=video
stream_index=0
key_frame=0
pkt_pts=8859600
pkt_pts_time=98.440000
pkt_dts=8866800
pkt_dts_time=98.520000
best_effort_timestamp=8866800
best_effort_timestamp_time=98.520000
pkt_duration=3600
pkt_duration_time=0.040000
pkt_pos=74072
pkt_size=513
width=480
height=288
pix_fmt=yuv420p
sample_aspect_ratio=16:15
pict_type=B
coded_picture_number=21
display_picture_number=0
interlaced_frame=0
top_field_first=0
repeat_pict=0
color_range=unknown
color_space=unknown
color_primaries=unknown
color_transfer=unknown
chroma_location=left
[/FRAME]
[FRAME]
media_type=audio
stream_index=1
key_frame=1
pkt_pts=8876160
pkt_pts_time=98.624000
pkt_dts=8876160
pkt_dts_time=98.624000
best_effort_timestamp=8876160
best_effort_timestamp_time=98.624000
pkt_duration=5760
pkt_duration_time=0.064000
pkt_pos=80088
pkt_size=567
sample_fmt=fltp
nb_samples=1024
channels=1
channel_layout=mono
[/FRAME]
[FRAME]
media_type=video
stream_index=0
key_frame=0
pkt_pts=8866800
pkt_pts_time=98.520000
pkt_dts=8870400
pkt_dts_time=98.560000
best_effort_timestamp=8870400
best_effort_timestamp_time=98.560000
pkt_duration=3600
pkt_duration_time=0.040000
pkt_pos=75764
pkt_size=210
width=480
height=288
pix_fmt=yuv420p
sample_aspect_ratio=16:15
pict_type=B
coded_picture_number=23
display_picture_number=0
interlaced_frame=0
top_field_first=0
repeat_pict=0
color_range=unknown
color_space=unknown
color_primaries=unknown
color_transfer=unknown
chroma_location=left
[/FRAME]
[FRAME]
media_type=video
stream_index=0
key_frame=0
pkt_pts=8856000
pkt_pts_time=98.400000
pkt_dts=8874000
pkt_dts_time=98.600000
best_effort_timestamp=8874000
best_effort_timestamp_time=98.600000
pkt_duration=3600
pkt_duration_time=0.040000
pkt_pos=70124
pkt_size=2662
width=480
height=288
pix_fmt=yuv420p
sample_aspect_ratio=16:15
pict_type=P
coded_picture_number=20
display_picture_number=0
interlaced_frame=0
top_field_first=0
repeat_pict=0
color_range=unknown
color_space=unknown
color_primaries=unknown
color_transfer=unknown
chroma_location=left
[/FRAME]
[FRAME]
media_type=audio
stream_index=1
key_frame=1
pkt_pts=8881920
pkt_pts_time=98.688000
pkt_dts=8881920
pkt_dts_time=98.688000
best_effort_timestamp=8881920
best_effort_timestamp_time=98.688000
pkt_duration=5760
pkt_duration_time=0.064000
pkt_pos=85164
pkt_size=675
sample_fmt=fltp
nb_samples=1024
channels=1
channel_layout=mono
[/FRAME]
[FRAME]
media_type=video
stream_index=0
key_frame=0
pkt_pts=8874000
pkt_pts_time=98.600000
pkt_dts=8877600
pkt_dts_time=98.640000
best_effort_timestamp=8877600
best_effort_timestamp_time=98.640000
pkt_duration=3600
pkt_duration_time=0.040000
pkt_pos=79148
pkt_size=277
width=480
height=288
pix_fmt=yuv420p
sample_aspect_ratio=16:15
pict_type=B
coded_picture_number=25
display_picture_number=0
interlaced_frame=0
top_field_first=0
repeat_pict=0
color_range=unknown
color_space=unknown
color_primaries=unknown
color_transfer=unknown
chroma_location=left
[/FRAME]
[FRAME]
media_type=audio
stream_index=1
key_frame=1
pkt_pts=8887680
pkt_pts_time=98.752000
pkt_dts=8887680
pkt_dts_time=98.752000
best_effort_timestamp=8887680
best_effort_timestamp_time=98.752000
pkt_duration=5760
pkt_duration_time=0.064000
pkt_pos=86104
pkt_size=687
sample_fmt=fltp
nb_samples=1024
channels=1
channel_layout=mono
[/FRAME]
[FRAME]
media_type=video
stream_index=0
key_frame=0
pkt_pts=8870400
pkt_pts_time=98.560000
pkt_dts=8881200
pkt_dts_time=98.680000
best_effort_timestamp=8881200
best_effort_timestamp_time=98.680000
pkt_duration=3600
pkt_duration_time=0.040000
pkt_pos=76140
pkt_size=2050
width=480
height=288
pix_fmt=yuv420p
sample_aspect_ratio=16:15
pict_type=P
coded_picture_number=24
display_picture_number=0
interlaced_frame=0
top_field_first=0
repeat_pict=0
color_range=unknown
color_space=unknown
color_primaries=unknown
color_transfer=unknown
chroma_location=left
[/FRAME]
[FRAME]
media_type=video
stream_index=0
key_frame=0
pkt_pts=8881200
pkt_pts_time=98.680000
pkt_dts=8884800
pkt_dts_time=98.720000
best_effort_timestamp=8884800
best_effort_timestamp_time=98.720000
pkt_duration=3600
pkt_duration_time=0.040000
pkt_pos=84788
pkt_size=227
width=480
height=288
pix_fmt=yuv420p
sample_aspect_ratio=16:15
pict_type=B
coded_picture_number=27
display_picture_number=0
interlaced_frame=0
top_field_first=0
repeat_pict=0
color_range=unknown
color_space=unknown
color_primaries=unknown
color_transfer=unknown
chroma_location=left
[/FRAME]
[FRAME]
media_type=audio
stream_index=1
key_frame=1
pkt_pts=8893440
pkt_pts_time=98.816000
pkt_dts=8893440
pkt_dts_time=98.816000
best_effort_timestamp=8893440
best_effort_timestamp_time=98.816000
pkt_duration=5760
pkt_duration_time=0.064000
pkt_pos=92120
pkt_size=539
sample_fmt=fltp
nb_samples=1024
channels=1
channel_layout=mono
[/FRAME]
[FRAME]
media_type=video
stream_index=0
key_frame=0
pkt_pts=8884800
pkt_pts_time=98.720000
pkt_dts=8888400
pkt_dts_time=98.760000
best_effort_timestamp=8888400
best_effort_timestamp_time=98.760000
pkt_duration=3600
pkt_duration_time=0.040000
pkt_pos=85916
pkt_size=139
width=480
height=288
pix_fmt=yuv420p
sample_aspect_ratio=16:15
pict_type=B
coded_picture_number=28
display_picture_number=0
interlaced_frame=0
top_field_first=0
repeat_pict=0
color_range=unknown
color_space=unknown
color_primaries=unknown
color_transfer=unknown
chroma_location=left
[/FRAME]
[FRAME]
media_type=video
stream_index=0
key_frame=0
pkt_pts=8877600
pkt_pts_time=98.640000
pkt_dts=8892000
pkt_dts_time=98.800000
best_effort_timestamp=8892000
best_effort_timestamp_time=98.800000
pkt_duration=3600
pkt_duration_time=0.040000
pkt_pos=80840
pkt_size=3776
width=480
height=288
pix_fmt=yuv420p
sample_aspect_ratio=16:15
pict_type=P
coded_picture_number=26
display_picture_number=0
interlaced_frame=0
top_field_first=0
repeat_pict=0
color_range=unknown
color_space=unknown
color_primaries=unknown
color_transfer=unknown
chroma_location=left
[/FRAME]
[FRAME]
media_type=audio
stream_index=1
key_frame=1
pkt_pts=8899200
pkt_pts_time=98.880000
pkt_dts=8899200
pkt_dts_time=98.880000
best_effort_timestamp=8899200
best_effort_timestamp_time=98.880000
pkt_duration=5760
pkt_duration_time=0.064000
pkt_pos=93248
pkt_size=572
sample_fmt=fltp
nb_samples=1024
channels=1
channel_layout=mono
[/FRAME]
[FRAME]
media_type=video
stream_index=0
key_frame=0
pkt_pts=8895600
pkt_pts_time=98.840000
pkt_dts=8895600
pkt_dts_time=98.840000
best_effort_timestamp=8895600
best_effort_timestamp_time=98.840000
pkt_duration=3600
pkt_duration_time=0.040000
pkt_pos=92872
pkt_size=133
width=480
height=288
pix_fmt=yuv420p
sample_aspect_ratio=16:15
pict_type=B
coded_picture_number=31
display_picture_number=0
interlaced_frame=0
top_field_first=0
repeat_pict=0
color_range=unknown
color_space=unknown
color_primaries=unknown
color_transfer=unknown
chroma_location=left
[/FRAME]
[FRAME]
media_type=audio
stream_index=1
key_frame=1
pkt_pts=8904960
pkt_pts_time=98.944000
pkt_dts=8904960
pkt_dts_time=98.944000
best_effort_timestamp=8904960
best_effort_timestamp_time=98.944000
pkt_duration=5760
pkt_duration_time=0.064000
pkt_pos=95880
pkt_size=540
sample_fmt=fltp
nb_samples=1024
channels=1
channel_layout=mono
[/FRAME]
[FRAME]
media_type=video
stream_index=0
key_frame=0
pkt_pts=8892000
pkt_pts_time=98.800000
pkt_dts=8899200
pkt_dts_time=98.880000
best_effort_timestamp=8899200
best_effort_timestamp_time=98.880000
pkt_duration=3600
pkt_duration_time=0.040000
pkt_pos=91556
pkt_size=381
width=480
height=288
pix_fmt=yuv420p
sample_aspect_ratio=16:15
pict_type=B
coded_picture_number=30
display_picture_number=0
interlaced_frame=0
top_field_first=0
repeat_pict=0
color_range=unknown
color_space=unknown
color_primaries=unknown
color_transfer=unknown
chroma_location=left
[/FRAME]
[FRAME]
media_type=video
stream_index=0
key_frame=0
pkt_pts=8899200
pkt_pts_time=98.880000
pkt_dts=8902800
pkt_dts_time=98.920000
best_effort_timestamp=8902800
best_effort_timestamp_time=98.920000
pkt_duration=3600
pkt_duration_time=0.040000
pkt_pos=93060
pkt_size=63
width=480
height=288
pix_fmt=yuv420p
sample_aspect_ratio=16:15
pict_type=B
coded_picture_number=32
display_picture_number=0
interlaced_frame=0
top_field_first=0
repeat_pict=0
color_range=unknown
color_space=unknown
color_primaries=unknown
color_transfer=unknown
chroma_location=left
[/FRAME]
[FRAME]
media_type=audio
stream_index=1
key_frame=1
pkt_pts=8910720
pkt_pts_time=99.008000
pkt_dts=8910720
pkt_dts_time=99.008000
best_effort_timestamp=8910720
best_effort_timestamp_time=99.008000
pkt_duration=5760
pkt_duration_time=0.064000
pkt_pos=97196
pkt_size=499
sample_fmt=fltp
nb_samples=1024
channels=1
channel_layout=mono
[/FRAME]
[FRAME]
media_type=video
stream_index=0
key_frame=0
pkt_pts=8888400
pkt_pts_time=98.760000
pkt_dts=8906400
pkt_dts_time=98.960000
best_effort_timestamp=8906400
best_effort_timestamp_time=98.960000
pkt_duration=3600
pkt_duration_time=0.040000
pkt_pos=86856
pkt_size=4136
width=480
height=288
pix_fmt=yuv420p
sample_aspect_ratio=16:15
pict_type=P
coded_picture_number=29
display_picture_number=0
interlaced_frame=0
top_field_first=0
repeat_pict=0
color_range=unknown
color_space=unknown
color_primaries=unknown
color_transfer=unknown
chroma_location=left
[/FRAME]
[FRAME]
media_type=audio
stream_index=1
key_frame=1
pkt_pts=8916480
pkt_pts_time=99.072000
pkt_dts=8916480
pkt_dts_time=99.072000
best_effort_timestamp=8916480
best_effort_timestamp_time=99.072000
pkt_duration=5760
pkt_duration_time=0.064000
pkt_pos=97948
pkt_size=628
sample_fmt=fltp
nb_samples=1024
channels=1
channel_layout=mono
[/FRAME]
[FRAME]
media_type=video
stream_index=0
key_frame=0
pkt_pts=8910000
pkt_pts_time=99.000000
pkt_dts=8910000
pkt_dts_time=99.000000
best_effort_timestamp=8910000
best_effort_timestamp_time=99.000000
pkt_duration=3600
pkt_duration_time=0.040000
pkt_pos=97008
pkt_size=74
width=480
height=288
pix_fmt=yuv420p
sample_aspect_ratio=16:15
pict_type=B
coded_picture_number=35
display_picture_number=0
interlaced_frame=0
top_field_first=0
repeat_pict=0
color_range=unknown
color_space=unknown
color_primaries=unknown
color_transfer=unknown
chroma_location=left
[/FRAME]
[FRAME]
media_type=video
stream_index=0
key_frame=0
pkt_pts=8906400
pkt_pts_time=98.960000
pkt_dts=8913600
pkt_dts_time=99.040000
best_effort_timestamp=8913600
best_effort_timestamp_time=99.040000
pkt_duration=3600
pkt_duration_time=0.040000
pkt_pos=96632
pkt_size=173
width=480
height=288
pix_fmt=yuv420p
sample_aspect_ratio=16:15
pict_type=B
coded_picture_number=34
display_picture_number=0
interlaced_frame=0
top_field_first=0
repeat_pict=0
color_range=unknown
color_space=unknown
color_primaries=unknown
color_transfer=unknown
chroma_location=left
[/FRAME]
[FRAME]
media_type=audio
stream_index=1
key_frame=1
pkt_pts=8922240
pkt_pts_time=99.136000
pkt_dts=8922240
pkt_dts_time=99.136000
best_effort_timestamp=8922240
best_effort_timestamp_time=99.136000
pkt_duration=5760
pkt_duration_time=0.064000
pkt_pos=101896
pkt_size=823
sample_fmt=fltp
nb_samples=1024
channels=1
channel_layout=mono
[/FRAME]
[FRAME]
media_type=video
stream_index=0
key_frame=0
pkt_pts=8913600
pkt_pts_time=99.040000
pkt_dts=8917200
pkt_dts_time=99.080000
best_effort_timestamp=8917200
best_effort_timestamp_time=99.080000
pkt_duration=3600
pkt_duration_time=0.040000
pkt_pos=97760
pkt_size=75
width=480
height=288
pix_fmt=yuv420p
sample_aspect_ratio=16:15
pict_type=B
coded_picture_number=36
display_picture_number=0
interlaced_frame=0
top_field_first=0
repeat_pict=0
color_range=unknown
color_space=unknown
color_primaries=unknown
color_transfer=unknown
chroma_location=left
[/FRAME]
[FRAME]
media_type=video
stream_index=0
key_frame=0
pkt_pts=8902800
pkt_pts_time=98.920000
pkt_dts=8920800
pkt_dts_time=99.120000
best_effort_timestamp=8920800
best_effort_timestamp_time=99.120000
pkt_duration=3600
pkt_duration_time=0.040000
pkt_pos=94000
pkt_size=1329
width=480
height=288
pix_fmt=yuv420p
sample_aspect_ratio=16:15
pict_type=P
coded_picture_number=33
display_picture_number=0
interlaced_frame=0
top_field_first=0
repeat_pict=0
color_range=unknown
color_space=unknown
color_primaries=unknown
color_transfer=unknown
chroma_location=left
[/FRAME]
[FRAME]
media_type=audio
stream_index=1
key_frame=1
pkt_pts=8928000
pkt_pts_time=99.200000
pkt_dts=8928000
pkt_dts_time=99.200000
best_effort_timestamp=8928000
best_effort_timestamp_time=99.200000
pkt_duration=5760
pkt_duration_time=0.064000
pkt_pos=103776
pkt_size=471
sample_fmt=fltp
nb_samples=1024
channels=1
channel_layout=mono
[/FRAME]
[FRAME]
media_type=video
stream_index=0
key_frame=0
pkt_pts=8924400
pkt_pts_time=99.160000
pkt_dts=8924400
pkt_dts_time=99.160000
best_effort_timestamp=8924400
best_effort_timestamp_time=99.160000
pkt_duration=3600
pkt_duration_time=0.040000
pkt_pos=102836
pkt_size=167
width=480
height=288
pix_fmt=yuv420p
sample_aspect_ratio=16:15
pict_type=B
coded_picture_number=39
display_picture_number=0
interlaced_frame=0
top_field_first=0
repeat_pict=0
color_range=unknown
color_space=unknown
color_primaries=unknown
color_transfer=unknown
chroma_location=left
[/FRAME]
[FRAME]
media_type=audio
stream_index=1
key_frame=1
pkt_pts=8933760
pkt_pts_time=99.264000
pkt_dts=8933760
pkt_dts_time=99.264000
best_effort_timestamp=8933760
best_effort_timestamp_time=99.264000
pkt_duration=5760
pkt_duration_time=0.064000
pkt_pos=106596
pkt_size=828
sample_fmt=fltp
nb_samples=1024
channels=1
channel_layout=mono
[/FRAME]
[FRAME]
media_type=video
stream_index=0
key_frame=0
pkt_pts=8920800
pkt_pts_time=99.120000
pkt_dts=8928000
pkt_dts_time=99.200000
best_effort_timestamp=8928000
best_effort_timestamp_time=99.200000
pkt_duration=3600
pkt_duration_time=0.040000
pkt_pos=101332
pkt_size=407
width=480
height=288
pix_fmt=yuv420p
sample_aspect_ratio=16:15
pict_type=B
coded_picture_number=38
display_picture_number=0
interlaced_frame=0
top_field_first=0
repeat_pict=0
color_range=unknown
color_space=unknown
color_primaries=unknown
color_transfer=unknown
chroma_location=left
[/FRAME]
[FRAME]
media_type=video
stream_index=0
key_frame=0
pkt_pts=8928000
pkt_pts_time=99.200000
pkt_dts=8931600
pkt_dts_time=99.240000
best_effort_timestamp=8931600
best_effort_timestamp_time=99.240000
pkt_duration=3600
pkt_duration_time=0.040000
pkt_pos=103024
pkt_size=337
width=480
height=288
pix_fmt=yuv420p
sample_aspect_ratio=16:15
pict_type=B
coded_picture_number=40
display_picture_number=0
interlaced_frame=0
top_field_first=0
repeat_pict=0
color_range=unknown
color_space=unknown
color_primaries=unknown
color_transfer=unknown
chroma_location=left
[/FRAME]
[FRAME]
media_type=audio
stream_index=1
key_frame=1
pkt_pts=8939520
pkt_pts_time=99.328000
pkt_dts=8939520
pkt_dts_time=99.328000
best_effort_timestamp=8939520
best_effort_timestamp_time=99.328000
pkt_duration=5760
pkt_duration_time=0.064000
pkt_pos=108476
pkt_size=644
sample_fmt=fltp
nb_samples=1024
channels=1
channel_layout=mono
[/FRAME]
[FRAME]
media_type=video
stream_index=0
key_frame=0
pkt_pts=8917200
pkt_pts_time=99.080000
pkt_dts=8935200
pkt_dts_time=99.280000
best_effort_timestamp=8935200
best_effort_timestamp_time=99.280000
pkt_duration=3600
pkt_duration_time=0.040000
pkt_pos=98700
pkt_size=2380
width=480
height=288
pix_fmt=yuv420p
sample_aspect_ratio=16:15
pict_type=P
coded_picture_number=37
display_picture_number=0
interlaced_frame=0
top_field_first=0
repeat_pict=0
color_range=unknown
color_space=unknown
color_primaries=unknown
color_transfer=unknown
chroma_location=left
[/FRAME]
[FRAME]
media_type=audio
stream_index=1
key_frame=1
pkt_pts=8945280
pkt_pts_time=99.392000
pkt_dts=8945280
pkt_dts_time=99.392000
best_effort_timestamp=8945280
best_effort_timestamp_time=99.392000
pkt_duration=5760
pkt_duration_time=0.064000
pkt_pos=109416
pkt_size=495
sample_fmt=fltp
nb_samples=1024
channels=1
channel_layout=mono
[/FRAME]
[FRAME]
media_type=video
stream_index=0
key_frame=0
pkt_pts=8938800
pkt_pts_time=99.320000
pkt_dts=8938800
pkt_dts_time=99.320000
best_effort_timestamp=8938800
best_effort_timestamp_time=99.320000
pkt_duration=3600
pkt_duration_time=0.040000
pkt_pos=108100
pkt_size=248
width=480
height=288
pix_fmt=yuv420p
sample_aspect_ratio=16:15
pict_type=B
coded_picture_number=43
display_picture_number=0
interlaced_frame=0
top_field_first=0
repeat_pict=0
color_range=unknown
color_space=unknown
color_primaries=unknown
color_transfer=unknown
chroma_location=left
[/FRAME]
[FRAME]
media_type=video
stream_index=0
key_frame=0
pkt_pts=8935200
pkt_pts_time=99.280000
pkt_dts=8942400
pkt_dts_time=99.360000
best_effort_timestamp=8942400
best_effort_timestamp_time=99.360000
pkt_duration=3600
pkt_duration_time=0.040000
pkt_pos=107536
pkt_size=515
width=480
height=288
pix_fmt=yuv420p
sample_aspect_ratio=16:15
pict_type=B
coded_picture_number=42
display_picture_number=0
interlaced_frame=0
top_field_first=0
repeat_pict=0
color_range=unknown
color_space=unknown
color_primaries=unknown
color_transfer=unknown
chroma_location=left
[/FRAME]
[FRAME]
media_type=audio
stream_index=1
key_frame=1
pkt_pts=8951040
pkt_pts_time=99.456000
pkt_dts=8951040
pkt_dts_time=99.456000
best_effort_timestamp=8951040
best_effort_timestamp_time=99.456000
pkt_duration=5760
pkt_duration_time=0.064000
pkt_pos=112612
pkt_size=696
sample_fmt=fltp
nb_samples=1024
channels=1
channel_layout=mono
[/FRAME]
[FRAME]
media_type=video
stream_index=0
key_frame=0
pkt_pts=8942400
pkt_pts_time=99.360000
pkt_dts=8946000
pkt_dts_time=99.400000
best_effort_timestamp=8946000
best_effort_timestamp_time=99.400000
pkt_duration=3600
pkt_duration_time=0.040000
pkt_pos=109228
pkt_size=151
width=480
height=288
pix_fmt=yuv420p
sample_aspect_ratio=16:15
pict_type=B
coded_picture_number=44
display_picture_number=0
interlaced_frame=0
top_field_first=0
repeat_pict=0
color_range=unknown
color_space=unknown
color_primaries=unknown
color_transfer=unknown
chroma_location=left
[/FRAME]
[FRAME]
media_type=video
stream_index=0
key_frame=0
pkt_pts=8931600
pkt_pts_time=99.240000
pkt_dts=8949600
pkt_dts_time=99.440000
best_effort_timestamp=8949600
best_effort_timestamp_time=99.440000
pkt_duration=3600
pkt_duration_time=0.040000
pkt_pos=104340
pkt_size=2132
width=480
height=288
pix_fmt=yuv420p
sample_aspect_ratio=16:15
pict_type=P
coded_picture_number=41
display_picture_number=0
interlaced_frame=0
top_field_first=0
repeat_pict=0
color_range=unknown
color_space=unknown
color_primaries=unknown
color_transfer=unknown
chroma_location=left
[/FRAME]
[FRAME]
media_type=audio
stream_index=1
key_frame=1
pkt_pts=8956800
pkt_pts_time=99.520000
pkt_dts=8956800
pkt_dts_time=99.520000
best_effort_timestamp=8956800
best_effort_timestamp_time=99.520000
pkt_duration=5760
pkt_duration_time=0.064000
pkt_pos=114116
pkt_size=731
sample_fmt=fltp
nb_samples=1024
channels=1
channel_layout=mono
[/FRAME]
[FRAME]
media_type=video
stream_index=0
key_frame=0
pkt_pts=8953200
pkt_pts_time=99.480000
pkt_dts=8953200
pkt_dts_time=99.480000
best_effort_timestamp=8953200
best_effort_timestamp_time=99.480000
pkt_duration=3600
pkt_duration_time=0.040000
pkt_pos=113364
pkt_size=182
width=480
height=288
pix_fmt=yuv420p
sample_aspect_ratio=16:15
pict_type=B
coded_picture_number=47
display_picture_number=0
interlaced_frame=0
top_field_first=0
repeat_pict=0
color_range=unknown
color_space=unknown
color_primaries=unknown
color_transfer=unknown
chroma_location=left
[/FRAME]
[FRAME]
media_type=audio
stream_index=1
key_frame=1
pkt_pts=8962560
pkt_pts_time=99.584000
pkt_dts=8962560
pkt_dts_time=99.584000
best_effort_timestamp=8962560
best_effort_timestamp_time=99.584000
pkt_duration=5760
pkt_duration_time=0.064000
pkt_pos=116184
pkt_size=528
sample_fmt=fltp
nb_samples=1024
channels=1
channel_layout=mono
[/FRAME]
[FRAME]
media_type=video
stream_index=0
key_frame=0
pkt_pts=8949600
pkt_pts_time=99.440000
pkt_dts=8956800
pkt_dts_time=99.520000
best_effort_timestamp=8956800
best_effort_timestamp_time=99.520000
pkt_duration=3600
pkt_duration_time=0.040000
pkt_pos=112236
pkt_size=351
width=480
height=288
pix_fmt=yuv420p
sample_aspect_ratio=16:15
pict_type=B
coded_picture_number=46
display_picture_number=0
interlaced_frame=0
top_field_first=0
repeat_pict=0
color_range=unknown
color_space=unknown
color_primaries=unknown
color_transfer=unknown
chroma_location=left
[/FRAME]
[FRAME]
media_type=video
stream_index=0
key_frame=0
pkt_pts=8956800
pkt_pts_time=99.520000
pkt_dts=8960400
pkt_dts_time=99.560000
best_effort_timestamp=8960400
best_effort_timestamp_time=99.560000
pkt_duration=3600
pkt_duration_time=0.040000
pkt_pos=113740
pkt_size=194
width=480
height=288
pix_fmt=yuv420p
sample_aspect_ratio=16:15
pict_type=B
coded_picture_number=48
display_picture_number=0
interlaced_frame=0
top_field_first=0
repeat_pict=0
color_range=unknown
color_space=unknown
color_primaries=unknown
color_transfer=unknown
chroma_location=left
[/FRAME]
[FRAME]
media_type=audio
stream_index=1
key_frame=1
pkt_pts=8968320
pkt_pts_time=99.648000
pkt_dts=8968320
pkt_dts_time=99.648000
best_effort_timestamp=8968320
best_effort_timestamp_time=99.648000
pkt_duration=5760
pkt_duration_time=0.064000
pkt_pos=117876
pkt_size=510
sample_fmt=fltp
nb_samples=1024
channels=1
channel_layout=mono
[/FRAME]
[FRAME]
media_type=video
stream_index=0
key_frame=0
pkt_pts=8946000
pkt_pts_time=99.400000
pkt_dts=8964000
pkt_dts_time=99.600000
best_effort_timestamp=8964000
best_effort_timestamp_time=99.600000
pkt_duration=3600
pkt_duration_time=0.040000
pkt_pos=109980
pkt_size=1653
width=480
height=288
pix_fmt=yuv420p
sample_aspect_ratio=16:15
pict_type=P
coded_picture_number=45
display_picture_number=0
interlaced_frame=0
top_field_first=0
repeat_pict=0
color_range=unknown
color_space=unknown
color_primaries=unknown
color_transfer=unknown
chroma_location=left
[/FRAME]
[FRAME]
media_type=audio
stream_index=1
key_frame=1
pkt_pts=8974080
pkt_pts_time=99.712000
pkt_dts=8974080
pkt_dts_time=99.712000
best_effort_timestamp=8974080
best_effort_timestamp_time=99.712000
pkt_duration=5760
pkt_duration_time=0.064000
pkt_pos=119756
pkt_size=637
sample_fmt=fltp
nb_samples=1024
channels=1
channel_layout=mono
[/FRAME]
[FRAME]
media_type=video
stream_index=0
key_frame=0
pkt_pts=8964000
pkt_pts_time=99.600000
pkt_dts=8967600
pkt_dts_time=99.640000
best_effort_timestamp=8967600
best_effort_timestamp_time=99.640000
pkt_duration=3600
pkt_duration_time=0.040000
pkt_pos=116748
pkt_size=89
width=480
height=288
pix_fmt=yuv420p
sample_aspect_ratio=16:15
pict_type=B
coded_picture_number=50
display_picture_number=0
interlaced_frame=0
top_field_first=0
repeat_pict=0
color_range=unknown
color_space=unknown
color_primaries=unknown
color_transfer=unknown
chroma_location=left
[/FRAME]
[FRAME]
media_type=video
stream_index=0
key_frame=0
pkt_pts=8960400
pkt_pts_time=99.560000
pkt_dts=8971200
pkt_dts_time=99.680000
best_effort_timestamp=8971200
best_effort_timestamp_time=99.680000
pkt_duration=3600
pkt_duration_time=0.040000
pkt_pos=115056
pkt_size=978
width=480
height=288
pix_fmt=yuv420p
sample_aspect_ratio=16:15
pict_type=P
coded_picture_number=49
display_picture_number=0
interlaced_frame=0
top_field_first=0
repeat_pict=0
color_range=unknown
color_space=unknown
color_primaries=unknown
color_transfer=unknown
chroma_location=left
[/FRAME]
[FRAME]
media_type=audio
stream_index=1
key_frame=1
pkt_pts=8979840
pkt_pts_time=99.776000
pkt_dts=8979840
pkt_dts_time=99.776000
best_effort_timestamp=8979840
best_effort_timestamp_time=99.776000
pkt_duration=5760
pkt_duration_time=0.064000
pkt_pos=122200
pkt_size=744
sample_fmt=fltp
nb_samples=1024
channels=1
channel_layout=mono
[/FRAME]
[FRAME]
media_type=video
stream_index=0
key_frame=0
pkt_pts=8967600
pkt_pts_time=99.640000
pkt_dts=8974800
pkt_dts_time=99.720000
best_effort_timestamp=8974800
best_effort_timestamp_time=99.720000
pkt_duration=3600
pkt_duration_time=0.040000
pkt_pos=116936
pkt_size=813
width=480
height=288
pix_fmt=yuv420p
sample_aspect_ratio=16:15
pict_type=P
coded_picture_number=51
display_picture_number=0
interlaced_frame=0
top_field_first=0
repeat_pict=0
color_range=unknown
color_space=unknown
color_primaries=unknown
color_transfer=unknown
chroma_location=left
[/FRAME]
[FRAME]
media_type=video
stream_index=0
key_frame=0
pkt_pts=8974800
pkt_pts_time=99.720000
pkt_dts=8978400
pkt_dts_time=99.760000
best_effort_timestamp=8978400
best_effort_timestamp_time=99.760000
pkt_duration=3600
pkt_duration_time=0.040000
pkt_pos=120508
pkt_size=39
width=480
height=288
pix_fmt=yuv420p
sample_aspect_ratio=16:15
pict_type=B
coded_picture_number=53
display_picture_number=0
interlaced_frame=0
top_field_first=0
repeat_pict=0
color_range=unknown
color_space=unknown
color_primaries=unknown
color_transfer=unknown
chroma_location=left
[/FRAME]
[FRAME]
media_type=audio
stream_index=1
key_frame=1
pkt_pts=8985600
pkt_pts_time=99.840000
pkt_dts=8985600
pkt_dts_time=99.840000
best_effort_timestamp=8985600
best_effort_timestamp_time=99.840000
pkt_duration=5760
pkt_duration_time=0.064000
pkt_pos=123704
pkt_size=544
sample_fmt=fltp
nb_samples=1024
channels=1
channel_layout=mono
[/FRAME]
[FRAME]
media_type=video
stream_index=0
key_frame=0
pkt_pts=8971200
pkt_pts_time=99.680000
pkt_dts=8982000
pkt_dts_time=99.800000
best_effort_timestamp=8982000
best_effort_timestamp_time=99.800000
pkt_duration=3600
pkt_duration_time=0.040000
pkt_pos=118440
pkt_size=662
width=480
height=288
pix_fmt=yuv420p
sample_aspect_ratio=16:15
pict_type=P
coded_picture_number=52
display_picture_number=0
interlaced_frame=0
top_field_first=0
repeat_pict=0
color_range=unknown
color_space=unknown
color_primaries=unknown
color_transfer=unknown
chroma_location=left
[/FRAME]
[FRAME]
media_type=audio
stream_index=1
key_frame=1
pkt_pts=8991360
pkt_pts_time=99.904000
pkt_dts=8991360
pkt_dts_time=99.904000
best_effort_timestamp=8991360
best_effort_timestamp_time=99.904000
pkt_duration=5760
pkt_duration_time=0.064000
pkt_pos=124832
pkt_size=815
sample_fmt=fltp
nb_samples=1024
channels=1
channel_layout=mono
[/FRAME]
[FRAME]
media_type=video
stream_index=0
key_frame=0
pkt_pts=8985600
pkt_pts_time=99.840000
pkt_dts=8985600
pkt_dts_time=99.840000
best_effort_timestamp=8985600
best_effort_timestamp_time=99.840000
pkt_duration=3600
pkt_duration_time=0.040000
pkt_pos=123516
pkt_size=125
width=480
height=288
pix_fmt=yuv420p
sample_aspect_ratio=16:15
pict_type=B
coded_picture_number=56
display_picture_number=0
interlaced_frame=0
top_field_first=0
repeat_pict=0
color_range=unknown
color_space=unknown
color_primaries=unknown
color_transfer=unknown
chroma_location=left
[/FRAME]
[FRAME]
media_type=video
stream_index=0
key_frame=0
pkt_pts=8982000
pkt_pts_time=99.800000
pkt_dts=8989200
pkt_dts_time=99.880000
best_effort_timestamp=8989200
best_effort_timestamp_time=99.880000
pkt_duration=3600
pkt_duration_time=0.040000
pkt_pos=123140
pkt_size=324
width=480
height=288
pix_fmt=yuv420p
sample_aspect_ratio=16:15
pict_type=B
coded_picture_number=55
display_picture_number=0
interlaced_frame=0
top_field_first=0
repeat_pict=0
color_range=unknown
color_space=unknown
color_primaries=unknown
color_transfer=unknown
chroma_location=left
[/FRAME]
[FRAME]
media_type=audio
stream_index=1
key_frame=1
pkt_pts=8997120
pkt_pts_time=99.968000
pkt_dts=8997120
pkt_dts_time=99.968000
best_effort_timestamp=8997120
best_effort_timestamp_time=99.968000
pkt_duration=5760
pkt_duration_time=0.064000
pkt_pos=128968
pkt_size=556
sample_fmt=fltp
nb_samples=1024
channels=1
channel_layout=mono
[/FRAME]
[FRAME]
media_type=video
stream_index=0
key_frame=0
pkt_pts=8989200
pkt_pts_time=99.880000
pkt_dts=8992800
pkt_dts_time=99.920000
best_effort_timestamp=8992800
best_effort_timestamp_time=99.920000
pkt_duration=3600
pkt_duration_time=0.040000
pkt_pos=124456
pkt_size=260
width=480
height=288
pix_fmt=yuv420p
sample_aspect_ratio=16:15
pict_type=B
coded_picture_number=57
display_picture_number=0
interlaced_frame=0
top_field_first=0
repeat_pict=0
color_range=unknown
color_space=unknown
color_primaries=unknown
color_transfer=unknown
chroma_location=left
[/FRAME]
[FRAME]
media_type=audio
stream_index=1
key_frame=1
pkt_pts=9002880
pkt_pts_time=100.032000
pkt_dts=9002880
pkt_dts_time=100.032000
best_effort_timestamp=9002880
best_effort_timestamp_time=100.032000
pkt_duration=5760
pkt_duration_time=0.064000
pkt_pos=129908
pkt_size=825
sample_fmt=fltp
nb_samples=1024
channels=1
channel_layout=mono
[/FRAME]
[FRAME]
media_type=video
stream_index=0
key_frame=0
pkt_pts=8978400
pkt_pts_time=99.760000
pkt_dts=8996400
pkt_dts_time=99.960000
best_effort_timestamp=8996400
best_effort_timestamp_time=99.960000
pkt_duration=3600
pkt_duration_time=0.040000
pkt_pos=120696
pkt_size=1297
width=480
height=288
pix_fmt=yuv420p
sample_aspect_ratio=16:15
pict_type=P
coded_picture_number=54
display_picture_number=0
interlaced_frame=0
top_field_first=0
repeat_pict=0
color_range=unknown
color_space=unknown
color_primaries=unknown
color_transfer=unknown
chroma_location=left
[/FRAME]
[FRAME]
media_type=audio
stream_index=1
key_frame=1
pkt_pts=9008640
pkt_pts_time=100.096000
pkt_dts=9008640
pkt_dts_time=100.096000
best_effort_timestamp=9008640
best_effort_timestamp_time=100.096000
pkt_duration=5760
pkt_duration_time=0.064000
pkt_pos=131412
pkt_size=687
sample_fmt=fltp
nb_samples=1024
channels=1
channel_layout=mono
[/FRAME]
[FRAME]
media_type=audio
stream_index=1
key_frame=1
pkt_pts=9014400
pkt_pts_time=100.160000
pkt_dts=9014400
pkt_dts_time=100.160000
best_effort_timestamp=9014400
best_effort_timestamp_time=100.160000
pkt_duration=5760
pkt_duration_time=0.064000
pkt_pos=132164
pkt_size=610
sample_fmt=fltp
nb_samples=1024
channels=1
channel_layout=mono
[/FRAME]
[FRAME]
media_type=video
stream_index=0
key_frame=0
pkt_pts=9000000
pkt_pts_time=100.000000
pkt_dts=9000000
pkt_dts_time=100.000000
best_effort_timestamp=9000000
best_effort_timestamp_time=100.000000
pkt_duration=3600
pkt_duration_time=0.040000
pkt_pos=129720
pkt_size=166
width=480
height=288
pix_fmt=yuv420p
sample_aspect_ratio=16:15
pict_type=B
coded_picture_number=60
display_picture_number=0
interlaced_frame=0
top_field_first=0
repeat_pict=0
color_range=unknown
color_space=unknown
color_primaries=unknown
color_transfer=unknown
chroma_location=left
[/FRAME]
[FRAME]
media_type=video
stream_index=0
key_frame=0
pkt_pts=8996400
pkt_pts_time=99.960000
pkt_dts=9003600
pkt_dts_time=100.040000
best_effort_timestamp=9003600
best_effort_timestamp_time=100.040000
pkt_duration=3600
pkt_duration_time=0.040000
pkt_pos=128404
pkt_size=449
width=480
height=288
pix_fmt=yuv420p
sample_aspect_ratio=16:15
pict_type=B
coded_picture_number=59
display_picture_number=0
interlaced_frame=0
top_field_first=0
repeat_pict=0
color_range=unknown
color_space=unknown
color_primaries=unknown
color_transfer=unknown
chroma_location=left
[/FRAME]
[FRAME]
media_type=video
stream_index=0
key_frame=0
pkt_pts=9003600
pkt_pts_time=100.040000
pkt_dts=N/A
pkt_dts_time=N/A
best_effort_timestamp=9003600
best_effort_timestamp_time=100.040000
pkt_duration=3600
pkt_duration_time=0.040000
pkt_pos=130848
pkt_size=411
width=480
height=288
pix_fmt=yuv420p
sample_aspect_ratio=16:15
pict_type=B
coded_picture_number=61
display_picture_number=0
interlaced_frame=0
top_field_first=0
repeat_pict=0
color_range=unknown
color_space=unknown
color_primaries=unknown
color_transfer=unknown
chroma_location=left
[/FRAME]
[FRAME]
media_type=video
stream_index=0
key_frame=0
pkt_pts=8992800
pkt_pts_time=99.920000
pkt_dts=N/A
pkt_dts_time=N/A
best_effort_timestamp=8992800
best_effort_timestamp_time=99.920000
pkt_duration=3600
pkt_duration_time=0.040000
pkt_pos=125772
pkt_size=2103
width=480
height=288
pix_fmt=yuv420p
sample_aspect_ratio=16:15
pict_type=P
coded_picture_number=58
display_picture_number=0
interlaced_frame=0
top_field_first=0
repeat_pict=0
color_range=unknown
color_space=unknown
color_primaries=unknown
color_transfer=unknown
chroma_location=left
[/FRAME]
